<svg width="48" height="48" viewBox="0 0 48 48" fill="none" xmlns="http://www.w3.org/2000/svg">
<path d="M0 24C0 10.7452 10.7452 0 24 0C37.2548 0 48 10.7452 48 24C48 37.2548 37.2548 48 24 48C10.7452 48 0 37.2548 0 24Z" fill="#0077B5"/>
<path d="M13.5242 15.393C8.60445 17.0629 5.81569 22.6571 7.48561 27.4888C7.98287 28.9453 8.62208 29.9927 9.75948 31.183C11.589 33.1015 13.5251 33.9894 15.9224 33.9894C18.2139 33.9894 20.7716 32.8705 22.192 31.2544C23.1865 30.1003 22.8312 28.59 21.4461 28.1289C20.7002 27.8803 20.0424 28.1113 19.2084 28.9277C16.8984 31.1654 12.8664 30.4909 11.4099 27.6131C10.6102 26.0675 10.5221 23.8474 11.1437 22.0003C11.588 20.7395 12.9908 19.3721 14.2339 18.9991C16.1525 18.4304 17.6795 18.7505 19.1889 20.0465C19.8458 20.6152 20.2902 20.8462 20.6455 20.8462C21.7996 20.8462 22.564 20.0827 22.5816 18.9277C22.5816 18.0036 21.9601 17.2578 20.3616 16.317C18.0886 14.9672 15.709 14.6471 13.5242 15.393Z" fill="white"/>
<path d="M25.9215 15.8727C25.3713 16.2985 24.9975 17.1511 25.1218 17.6669C25.1756 17.8627 26.5959 21.4326 28.3011 25.5888C30.1835 30.2247 31.5333 33.2973 31.8005 33.5636C32.3507 34.1147 33.5233 34.1499 34.1801 33.635C34.5178 33.3688 35.388 31.3612 37.7677 25.4293C41.2133 16.8153 41.1956 16.8505 40.1482 15.9803C39.509 15.4302 38.7093 15.3764 37.9458 15.8384C37.4838 16.1223 37.1461 16.8329 35.299 21.4864C34.1449 24.3995 33.1318 26.8505 33.0789 26.9211C33.0084 27.0092 31.9601 24.6119 30.7522 21.6274C28.816 16.832 28.4969 16.139 28.0172 15.8551C27.3066 15.4283 26.4725 15.4283 25.9215 15.8727Z" fill="white"/>
</svg>
