<svg width="48" height="48" viewBox="0 0 48 48" fill="none" xmlns="http://www.w3.org/2000/svg">
<path d="M0 24C0 10.7452 10.7452 0 24 0C37.2548 0 48 10.7452 48 24C48 37.2548 37.2548 48 24 48C10.7452 48 0 37.2548 0 24Z" fill="#0077B5"/>
<path d="M12.3402 7.09152C11.7606 7.30004 11.3112 7.7494 11.0898 8.32223C10.9986 8.56987 10.9921 10.087 11.0051 23.8024L11.0244 39.0091L11.2003 39.3085C11.4282 39.6993 11.8776 40.1031 12.2358 40.2399C12.5028 40.3375 13.3559 40.344 23.5935 40.331C34.1308 40.3116 34.6778 40.3048 34.8798 40.1943C35.2642 39.9858 35.6289 39.6017 35.8177 39.2044L36 38.8136V25.9448C36 14.4112 35.9871 13.0434 35.8959 12.757C35.8047 12.4705 35.5506 12.197 33.2127 9.87202C31.2265 7.90519 30.5492 7.27351 30.3016 7.15615L29.976 7.00002L21.2818 7.00648C14.1376 7.00682 12.5419 7.01974 12.3402 7.09152ZM29.0317 10.8429C29.0317 13.5717 29.0447 13.6757 29.4161 13.8645C29.5855 13.9557 29.9696 13.9686 32.1252 13.9686H34.6325V26.3295C34.6325 37.3423 34.6196 38.7098 34.5284 38.8336L34.4308 38.9768H23.4959C13.6423 38.9768 12.5548 38.9639 12.4637 38.8727C12.3725 38.7816 12.3596 37.3162 12.3596 23.7116C12.3596 7.99023 12.3531 8.51136 12.6202 8.41374C12.6722 8.39435 16.3909 8.37462 20.878 8.37462L29.0317 8.36816V10.8429ZM32.2228 10.8296C33.1542 11.7412 33.9162 12.51 33.9162 12.5423C33.9162 12.5814 33.226 12.5944 32.1772 12.5879L30.4318 12.5685L30.4125 10.8558C30.406 9.72915 30.4189 9.14305 30.4645 9.16244C30.4968 9.1689 31.2914 9.92441 32.2228 10.8296Z" fill="white"/>
<path d="M21.6726 19.6541C19.8687 20.2664 18.8462 22.3176 19.4585 24.0892C19.6408 24.6232 19.8752 25.0073 20.2922 25.4437C20.963 26.1472 21.673 26.4727 22.5519 26.4727C23.3921 26.4727 24.33 26.0625 24.8508 25.4699C25.2154 25.0467 25.0851 24.493 24.5773 24.3239C24.3038 24.2327 24.0626 24.3174 23.7568 24.6168C22.9098 25.4373 21.4314 25.19 20.8974 24.1348C20.6042 23.5681 20.5718 22.754 20.7998 22.0768C20.9627 21.6145 21.477 21.1131 21.9328 20.9763C22.6363 20.7678 23.1962 20.8852 23.7497 21.3604C23.9905 21.5689 24.1534 21.6536 24.2837 21.6536C24.7069 21.6536 24.9872 21.3737 24.9936 20.9501C24.9936 20.6113 24.7657 20.3379 24.1796 19.9929C23.3462 19.498 22.4737 19.3806 21.6726 19.6541Z" fill="white"/>
<path d="M26.2182 19.83C26.0165 19.9861 25.8794 20.2987 25.925 20.4879C25.9447 20.5596 26.4655 21.8686 27.0908 23.3925C27.7809 25.0923 28.2759 26.219 28.3739 26.3166C28.5756 26.5186 29.0055 26.5316 29.2464 26.3428C29.3702 26.2452 29.6893 25.509 30.5618 23.334C31.8252 20.1756 31.8187 20.1885 31.4347 19.8695C31.2003 19.6677 30.9071 19.648 30.6271 19.8174C30.4577 19.9215 30.3339 20.1821 29.6566 21.8883C29.2334 22.9564 28.862 23.8552 28.8426 23.881C28.8167 23.9133 28.4324 23.0343 27.9895 21.94C27.2795 20.1817 27.1625 19.9276 26.9867 19.8235C26.7261 19.6671 26.4203 19.6671 26.2182 19.83Z" fill="white"/>
<path d="M15.7721 29.2733C15.3422 29.4492 15.2187 30.0547 15.5442 30.387L15.733 30.5758H23.4894H31.2459L31.4476 30.3935C31.617 30.2438 31.6561 30.1591 31.6561 29.9506C31.6561 29.625 31.4932 29.3709 31.2329 29.2798C30.9853 29.1951 15.9806 29.1886 15.7721 29.2733Z" fill="white"/>
<path d="M15.5769 33.6628C15.2578 33.9819 15.284 34.405 15.6418 34.6918C15.7721 34.7959 16.28 34.8091 23.5024 34.8091C31.1479 34.8091 31.2326 34.8091 31.3955 34.6789C31.6428 34.4836 31.7343 34.1577 31.6105 33.8778C31.4217 33.409 31.9687 33.4413 23.4568 33.4413H15.7983L15.5769 33.6628Z" fill="white"/>
</svg>
