<svg width="66" height="66" viewBox="0 0 66 66" fill="none" xmlns="http://www.w3.org/2000/svg">
<g clip-path="url(#clip0_37423_2)">
<path d="M66.0825 32.9381C66.0825 51.1912 51.2738 66 33.0413 66C14.7881 66 0 51.1912 0 32.9381C0 14.685 14.7881 -0.123779 33.0413 -0.123779C51.2738 -0.123779 66.0825 14.685 66.0825 32.9381ZM35.5781 47.3756C32.6288 46.7981 30.8756 45.0862 26.4 38.445C24.915 36.2175 24.915 36.2175 23.4713 36.1143C21.3469 35.97 21.5119 35.5987 21.5738 40.2806C21.6563 45.6018 21.5944 45.4781 24.6675 45.9937C25.4719 46.1175 25.5338 46.1793 25.5338 46.6537C25.5338 47.19 25.5338 47.19 20.13 47.2312C15.0563 47.2725 14.7263 47.2518 14.6231 46.9425C14.4169 46.3443 14.7262 46.0556 15.84 45.8493C17.0981 45.6225 17.7581 45.1068 17.9231 44.2406C18.0056 43.9106 18.0263 39.4556 17.985 34.3406C17.9231 23.595 18.0469 24.2343 16.0669 23.8012C14.8294 23.5331 14.4375 23.2443 14.6025 22.7493C14.7262 22.4193 14.9944 22.3987 20.625 22.2956C28.9987 22.1306 30.5662 22.3987 32.7937 24.3787C35.1244 26.4618 35.4544 29.6381 33.5981 32.2987C32.7731 33.495 31.1231 34.7737 29.8444 35.2481C29.2463 35.475 28.7512 35.7225 28.7512 35.805C28.7512 36.0525 30.6488 38.7543 31.8244 40.1981C34.9594 44.0137 36.6506 45.4987 38.4038 45.9525C39.4969 46.2412 39.8062 46.5506 39.4969 47.0868C39.1669 47.6437 37.5169 47.7675 35.5781 47.3756ZM27.6788 33.7012C31.8038 32.01 32.1131 26.3381 28.1944 24.6675C27.1838 24.2343 26.9156 24.2137 24.3787 24.2137C21.6356 24.2137 21.6356 24.2137 21.5944 28.9781C21.5531 31.5975 21.5737 33.8662 21.6356 33.99C21.8212 34.4231 26.4619 34.1962 27.6788 33.7012ZM42.0544 27.8231C38.8575 27.225 37.8056 25.2656 37.9706 20.2331C38.0531 17.4487 38.28 16.6856 39.3525 15.5306C41.25 13.4887 45.9525 13.6743 47.685 15.8606C48.4275 16.7887 48.3656 17.0775 47.3344 17.3868C46.53 17.655 46.53 17.655 45.7875 16.9125C44.0344 15.2212 41.0025 15.84 40.4663 18.0262C40.1981 18.9956 40.2187 23.1 40.4869 24.0281C41.2087 26.6475 45.5606 26.6475 46.3031 24.0281C46.7569 22.3575 46.6537 22.2337 44.6531 22.1306C43.6837 22.0893 43.6838 22.0893 43.6838 21.285C43.6838 20.5012 43.6837 20.5012 45.9937 20.4393C48.9844 20.3775 48.9431 20.3362 48.7987 22.5225C48.6131 25.2656 47.8706 26.5856 46.0763 27.3693C44.9006 27.8643 43.2919 28.05 42.0544 27.8231Z" fill="#0077B5"/>
<path d="M35.5781 47.3757C32.6288 46.7982 30.8756 45.0863 26.4 38.4451C24.915 36.2176 24.915 36.2176 23.4713 36.1144C21.3469 35.9701 21.5119 35.5988 21.5737 40.2807C21.6562 45.6019 21.5944 45.4782 24.6675 45.9938C25.4719 46.1176 25.5338 46.1794 25.5338 46.6538C25.5338 47.1901 25.5337 47.1901 20.13 47.2313C15.0562 47.2726 14.7262 47.2519 14.6231 46.9426C14.4169 46.3444 14.7262 46.0557 15.84 45.8494C17.0981 45.6226 17.7581 45.1069 17.9231 44.2407C18.0056 43.9107 18.0263 39.4557 17.985 34.3407C17.9231 23.5951 18.0469 24.2344 16.0669 23.8013C14.8294 23.5332 14.4375 23.2444 14.6025 22.7494C14.7262 22.4194 14.9944 22.3988 20.625 22.2957C28.9987 22.1307 30.5662 22.3988 32.7937 24.3788C35.1244 26.4619 35.4544 29.6382 33.5981 32.2988C32.7731 33.4951 31.1231 34.7738 29.8444 35.2482C29.2463 35.4751 28.7512 35.7226 28.7512 35.8051C28.7512 36.0526 30.6488 38.7544 31.8244 40.1982C34.9594 44.0138 36.6506 45.4988 38.4038 45.9526C39.4969 46.2413 39.8062 46.5507 39.4969 47.0869C39.1669 47.6438 37.5169 47.7676 35.5781 47.3757ZM27.6788 33.7013C31.8038 32.0101 32.1131 26.3382 28.1944 24.6676C27.1838 24.2344 26.9156 24.2138 24.3787 24.2138C21.6356 24.2138 21.6356 24.2138 21.5944 28.9782C21.5531 31.5976 21.5737 33.8663 21.6356 33.9901C21.8212 34.4232 26.4619 34.1963 27.6788 33.7013ZM42.0544 27.8232C38.8575 27.2251 37.8056 25.2657 37.9706 20.2332C38.0531 17.4488 38.28 16.6857 39.3525 15.5307C41.25 13.4888 45.9525 13.6744 47.685 15.8607C48.4275 16.7888 48.3656 17.0776 47.3344 17.3869C46.53 17.6551 46.53 17.6551 45.7875 16.9126C44.0344 15.2213 41.0025 15.8401 40.4663 18.0263C40.1981 18.9957 40.2187 23.1001 40.4869 24.0282C41.2087 26.6476 45.5606 26.6476 46.3031 24.0282C46.7569 22.3576 46.6537 22.2338 44.6531 22.1307C43.6837 22.0894 43.6838 22.0894 43.6838 21.2851C43.6838 20.5013 43.6837 20.5013 45.9937 20.4394C48.9844 20.3776 48.9431 20.3363 48.7987 22.5226C48.6131 25.2657 47.8706 26.5857 46.0763 27.3694C44.9006 27.8644 43.2919 28.0501 42.0544 27.8232Z" fill="white"/>
</g>
<defs>
<clipPath id="clip0_37423_2">
<rect width="66" height="66" fill="white"/>
</clipPath>
</defs>
</svg>
